<mxfile host="Electron" modified="2024-10-22T05:12:47.571Z" agent="Mozilla/5.0 (Macintosh; Intel Mac OS X 10_15_7) AppleWebKit/537.36 (KHTML, like Gecko) draw.io/21.2.8 Chrome/112.0.5615.165 Electron/24.2.0 Safari/537.36" etag="1siQvFhlf1UCA8sJlfJ2" version="21.2.8" type="device" pages="2">
  <diagram name="Data Collection" id="B1tPK6UYmKAd5gpzkFc8">
    <mxGraphModel dx="1026" dy="653" grid="1" gridSize="10" guides="1" tooltips="1" connect="1" arrows="1" fold="1" page="1" pageScale="1" pageWidth="1169" pageHeight="827" math="0" shadow="0">
      <root>
        <mxCell id="0" />
        <mxCell id="1" parent="0" />
        <mxCell id="r9qYg7yv3ezreIyBHhR3-5" style="edgeStyle=orthogonalEdgeStyle;rounded=1;orthogonalLoop=1;jettySize=auto;html=1;entryX=0;entryY=0.5;entryDx=0;entryDy=0;" edge="1" parent="1" source="I7c4ZP2H_386G1s-s4To-2" target="r9qYg7yv3ezreIyBHhR3-4">
          <mxGeometry relative="1" as="geometry" />
        </mxCell>
        <mxCell id="I7c4ZP2H_386G1s-s4To-2" value="&lt;b&gt;Live Mint&lt;br&gt;Website&lt;br&gt;&lt;/b&gt;" style="ellipse;shape=cloud;whiteSpace=wrap;html=1;" parent="1" vertex="1">
          <mxGeometry x="240" y="270" width="120" height="80" as="geometry" />
        </mxCell>
        <mxCell id="r9qYg7yv3ezreIyBHhR3-6" style="edgeStyle=orthogonalEdgeStyle;rounded=1;orthogonalLoop=1;jettySize=auto;html=1;entryX=0;entryY=0.5;entryDx=0;entryDy=0;" edge="1" parent="1" source="I7c4ZP2H_386G1s-s4To-3" target="r9qYg7yv3ezreIyBHhR3-4">
          <mxGeometry relative="1" as="geometry" />
        </mxCell>
        <mxCell id="I7c4ZP2H_386G1s-s4To-3" value="&lt;b&gt;Economic&lt;br&gt;Times&lt;br&gt;Website&lt;br&gt;&lt;/b&gt;" style="ellipse;shape=cloud;whiteSpace=wrap;html=1;" parent="1" vertex="1">
          <mxGeometry x="240" y="360" width="120" height="80" as="geometry" />
        </mxCell>
        <mxCell id="r9qYg7yv3ezreIyBHhR3-7" style="edgeStyle=orthogonalEdgeStyle;rounded=1;orthogonalLoop=1;jettySize=auto;html=1;" edge="1" parent="1" source="I7c4ZP2H_386G1s-s4To-4" target="r9qYg7yv3ezreIyBHhR3-4">
          <mxGeometry relative="1" as="geometry" />
        </mxCell>
        <mxCell id="I7c4ZP2H_386G1s-s4To-4" value="&lt;b&gt;Money&lt;br&gt;Control&lt;br&gt;Website&lt;br&gt;&lt;/b&gt;" style="ellipse;shape=cloud;whiteSpace=wrap;html=1;" parent="1" vertex="1">
          <mxGeometry x="240" y="450" width="120" height="80" as="geometry" />
        </mxCell>
        <mxCell id="I7c4ZP2H_386G1s-s4To-11" value="" style="sketch=0;html=1;verticalAlign=top;labelPosition=center;verticalLabelPosition=bottom;align=center;spacingTop=-6;fontSize=11;fontStyle=1;fontColor=#999999;shape=image;aspect=fixed;imageAspect=0;image=data:image/svg+xml,PHN2ZyB4bWxucz0iaHR0cDovL3d3dy53My5vcmcvMjAwMC9zdmciIHhtbG5zOnY9Imh0dHBzOi8vdmVjdGEuaW8vbmFubyIgd2lkdGg9IjIwIiBoZWlnaHQ9IjE2IiB2aWV3Qm94PSIwIDAgMjAgMTYiPiYjeGE7CTxzdHlsZSB0eXBlPSJ0ZXh0L2NzcyI+JiN4YTsJLnN0MHtmaWxsOiM0Mjg1ZjQ7fSYjeGE7CS5zdDF7ZmlsbDojNjY5ZGY2O30mI3hhOwkuc3Qye2ZpbGw6I2FlY2JmYTt9JiN4YTsJPC9zdHlsZT4mI3hhOwk8cGF0aCBjbGFzcz0ic3QwIiBkPSJNMTIgMTBIOEw2IDhoOHoiLz4mI3hhOwk8cGF0aCBjbGFzcz0ic3QyIiBkPSJNMTYgMkg0bDEtMmgxMHptMyAzSDFsMS0yaDE2eiIvPiYjeGE7CTxwYXRoIGNsYXNzPSJzdDEiIGQ9Ik0xNCA3bC0yIDNIOEw2IDdIMHY5aDIwVjd6Ii8+JiN4YTs8L3N2Zz4=;" parent="1" vertex="1">
          <mxGeometry x="640" y="380" width="42" height="34" as="geometry" />
        </mxCell>
        <mxCell id="r9qYg7yv3ezreIyBHhR3-3" style="edgeStyle=orthogonalEdgeStyle;rounded=0;orthogonalLoop=1;jettySize=auto;html=1;" edge="1" parent="1" source="I7c4ZP2H_386G1s-s4To-12" target="r9qYg7yv3ezreIyBHhR3-1">
          <mxGeometry relative="1" as="geometry" />
        </mxCell>
        <mxCell id="I7c4ZP2H_386G1s-s4To-12" value="&lt;b&gt;Yahoo&lt;br&gt;Finance&lt;br&gt;APIs&lt;br&gt;&lt;/b&gt;" style="ellipse;shape=cloud;whiteSpace=wrap;html=1;" parent="1" vertex="1">
          <mxGeometry x="240" y="170" width="120" height="80" as="geometry" />
        </mxCell>
        <mxCell id="I7c4ZP2H_386G1s-s4To-18" value="&lt;b&gt;File Store&lt;/b&gt;" style="text;html=1;align=center;verticalAlign=middle;resizable=0;points=[];autosize=1;strokeColor=none;fillColor=none;" parent="1" vertex="1">
          <mxGeometry x="560" y="382" width="80" height="30" as="geometry" />
        </mxCell>
        <mxCell id="r9qYg7yv3ezreIyBHhR3-2" style="edgeStyle=orthogonalEdgeStyle;rounded=1;orthogonalLoop=1;jettySize=auto;html=1;" edge="1" parent="1" source="r9qYg7yv3ezreIyBHhR3-1" target="I7c4ZP2H_386G1s-s4To-11">
          <mxGeometry relative="1" as="geometry" />
        </mxCell>
        <mxCell id="r9qYg7yv3ezreIyBHhR3-1" value="&lt;b&gt;Stock Price&lt;br&gt;Saver Script&lt;br&gt;&lt;/b&gt;" style="rounded=1;whiteSpace=wrap;html=1;fillColor=#f5f5f5;fontColor=#333333;strokeColor=#666666;" vertex="1" parent="1">
          <mxGeometry x="440" y="180" width="120" height="60" as="geometry" />
        </mxCell>
        <mxCell id="r9qYg7yv3ezreIyBHhR3-8" style="edgeStyle=orthogonalEdgeStyle;rounded=1;orthogonalLoop=1;jettySize=auto;html=1;entryX=0.5;entryY=1;entryDx=0;entryDy=0;" edge="1" parent="1" source="r9qYg7yv3ezreIyBHhR3-4" target="I7c4ZP2H_386G1s-s4To-11">
          <mxGeometry relative="1" as="geometry" />
        </mxCell>
        <mxCell id="r9qYg7yv3ezreIyBHhR3-4" value="&lt;b&gt;News Scraper&lt;br&gt;Script&lt;br&gt;&lt;/b&gt;" style="rounded=1;whiteSpace=wrap;html=1;fillColor=#f5f5f5;fontColor=#333333;strokeColor=#666666;" vertex="1" parent="1">
          <mxGeometry x="440" y="460" width="120" height="60" as="geometry" />
        </mxCell>
      </root>
    </mxGraphModel>
  </diagram>
  <diagram id="L_NeIC_KItNb9uATZ7mT" name="Data Preprocessing">
    <mxGraphModel dx="1026" dy="653" grid="1" gridSize="10" guides="1" tooltips="1" connect="1" arrows="1" fold="1" page="1" pageScale="1" pageWidth="1169" pageHeight="827" math="0" shadow="0">
      <root>
        <mxCell id="0" />
        <mxCell id="1" parent="0" />
      </root>
    </mxGraphModel>
  </diagram>
</mxfile>
